<svg data-v-0dd9719b="" version="1.0" xmlns="http://www.w3.org/2000/svg" xmlns:xlink="http://www.w3.org/1999/xlink" width="100%" height="100%" viewBox="0 0 340.000000 250.000000" preserveAspectRatio="xMidYMid meet" color-interpolation-filters="sRGB" style="margin: auto;"> <rect data-v-0dd9719b="" x="0" y="0" width="100%" height="100%" fill="#fff" fill-opacity="1" class="background"></rect> <rect data-v-0dd9719b="" x="0" y="0" width="100%" height="100%" fill="url(#watermark)" fill-opacity="1" class="watermarklayer"></rect> <g data-v-0dd9719b="" fill="#333" class="icon-text-wrapper icon-svg-group iconsvg" transform="translate(47.084999084472656,93.43002510075668)"><g class="iconsvg-imagesvg" transform="translate(0,0)"><g><rect fill="#333" fill-opacity="0" stroke-width="2" x="0" y="0" width="60" height="63.13994969850674" class="image-rect"></rect> <svg x="0" y="0" width="60" height="63.13994969850674" filtersec="colorsb9667218078" class="image-svg-svg primary" style="overflow: visible;"><svg xmlns="http://www.w3.org/2000/svg" viewBox="-0.02771943435072899 0.0012540221214294434 143.51670837402344 151.0276641845703"><path d="M.06 74.93c0-11 .09-22.07-.06-33.11a5.33 5.33 0 0 1 3-5.35c8.8-5 17.52-10.13 26.26-15.23Q46.72 11.07 64.16.86c2.52-1.48 3.14-1.14 3.15 1.75v23.46a7.65 7.65 0 0 0 0 2.09c1 3.29-.73 4.87-3.4 6.4-7 4-13.71 8.34-20.65 12.36-3.86 2.24-7.6 4.68-11.51 6.84A4.15 4.15 0 0 0 29.42 58q.07 32.68 0 65.38c0 5.35-.08 5.4-4.68 2.74-7.43-4.29-14.83-8.63-22.3-12.85A4.15 4.15 0 0 1 0 109.08C.11 97.7.07 86.31.06 74.93z" fill="#303e8f"></path><path d="M78.05 75.35v-71-2.51c0-1.6.62-2 2.09-1.12 8 4.61 16 9.2 24 13.68 1.82 1 2 2.4 2 4.17v110a50.69 50.69 0 0 1-.36 5.64 2.82 2.82 0 0 1-1.48 2.35l-16.47 9.55-7.6 4.4c-1.61.92-2.08.67-2.17-1.18V75.35z" fill="#fb941c"></path><path d="M67.27 97.7v48.8a20.76 20.76 0 0 1 0 2.09c-.13 1.26-.82 1.55-1.88.93q-9.78-5.67-19.55-11.34c-1.38-.81-2.8-1.55-4.2-2.34a2.8 2.8 0 0 1-1.53-2.72q0-33.5-.12-67c0-1.6.43-3.18.22-4.8-.12-.91.6-1.31 1.29-1.71 4-2.32 8.09-4.68 12.13-7l10.69-6.16c2.81-1.61 3-1.5 3 1.85v12.54q-.06 18.43-.05 36.86z" fill="#303e8f"></path><path d="M117 75.51V25.64c0-3.38.27-3.57 3.19-2 7.14 3.82 14.25 7.68 21.41 11.47a3 3 0 0 1 1.88 2.89v74a3.19 3.19 0 0 1-1.73 3.08c-7.3 4.12-14.56 8.28-21.84 12.42-.7.4-1.36 1.26-2.25.79s-.61-1.63-.61-2.49q-.05-25.14-.05-50.29z" fill="#fb941c"></path></svg></svg> <!----></g></g> <g transform="translate(67,19.88997459411621)"><g data-gra="path-name" fill-rule="" class="tp-name iconsvg-namesvg"><g transform="scale(1)"><g><path d="M9.55-17.38L9.55-17.38Q11.14-17.38 12.17-16.91 13.19-16.44 13.98-15.81L13.98-15.81Q14.46-15.45 14.72-15.73 14.97-16 15.07-17.04L15.07-17.04 15.62-17.04Q15.57-16.1 15.55-14.77 15.52-13.43 15.52-11.22L15.52-11.22 14.97-11.22Q14.85-12.32 14.66-13.1 14.46-13.89 14.13-14.49 13.79-15.09 13.16-15.57L13.16-15.57Q12.56-16.17 11.77-16.46 10.97-16.75 10.11-16.75L10.11-16.75Q8.81-16.75 7.89-16.06 6.98-15.38 6.41-14.2 5.85-13.02 5.58-11.54 5.32-10.06 5.32-8.47L5.32-8.47Q5.32-6.86 5.6-5.38 5.87-3.9 6.46-2.74 7.05-1.59 7.99-0.91 8.93-0.24 10.2-0.24L10.2-0.24Q11-0.24 11.81-0.54 12.61-0.84 13.19-1.42L13.19-1.42Q14.13-2.14 14.46-3.21 14.8-4.28 14.97-6.06L14.97-6.06 15.52-6.06Q15.52-3.78 15.55-2.37 15.57-0.96 15.62 0L15.62 0 15.07 0Q14.97-1.03 14.74-1.3 14.51-1.56 13.98-1.23L13.98-1.23Q13.09-0.6 12.09-0.13 11.1 0.34 9.53 0.34L9.53 0.34Q6.98 0.34 5.07-0.7 3.15-1.73 2.09-3.68 1.03-5.63 1.03-8.38L1.03-8.38Q1.03-11.07 2.13-13.09 3.23-15.11 5.14-16.25 7.05-17.38 9.55-17.38ZM23.75-12.78L23.75-12.78Q25.51-12.78 26.84-12.13 28.16-11.48 28.9-10.04 29.65-8.59 29.65-6.21L29.65-6.21Q29.65-3.83 28.9-2.39 28.16-0.96 26.84-0.31 25.51 0.34 23.75 0.34L23.75 0.34Q22.05 0.34 20.71-0.31 19.37-0.96 18.62-2.39 17.86-3.83 17.86-6.21L17.86-6.21Q17.86-8.59 18.62-10.04 19.37-11.48 20.71-12.13 22.05-12.78 23.75-12.78ZM23.75-12.3L23.75-12.3Q22.79-12.3 22.14-10.87 21.49-9.43 21.49-6.21L21.49-6.21Q21.49-2.98 22.14-1.56 22.79-0.14 23.75-0.14L23.75-0.14Q24.74-0.14 25.38-1.56 26.02-2.98 26.02-6.21L26.02-6.21Q26.02-9.43 25.38-10.87 24.74-12.3 23.75-12.3ZM40.1-12.78L40.1-12.78Q41.11-12.78 41.74-12.53 42.38-12.27 42.74-11.84L42.74-11.84Q43.13-11.38 43.31-10.66 43.49-9.94 43.49-8.71L43.49-8.71 43.49-2.24Q43.49-1.23 43.84-0.87 44.19-0.51 45.03-0.51L45.03-0.51 45.03 0Q44.57-0.02 43.66-0.06 42.74-0.1 41.85-0.1L41.85-0.1Q40.94-0.1 40.06-0.06 39.18-0.02 38.72 0L38.72 0 38.72-0.51Q39.45-0.51 39.74-0.87 40.02-1.23 40.02-2.24L40.02-2.24 40.02-9.72Q40.02-10.32 39.9-10.77 39.78-11.22 39.47-11.47 39.16-11.72 38.53-11.72L38.53-11.72Q37.52-11.72 36.84-10.93 36.15-10.13 36.15-8.93L36.15-8.93 36.15-2.24Q36.15-1.23 36.45-0.87 36.75-0.51 37.45-0.51L37.45-0.51 37.45 0Q37.02-0.02 36.19-0.06 35.35-0.1 34.46-0.1L34.46-0.1Q33.55-0.1 32.59-0.06 31.62-0.02 31.14 0L31.14 0 31.14-0.51Q31.99-0.51 32.33-0.87 32.68-1.23 32.68-2.24L32.68-2.24 32.68-9.82Q32.68-10.9 32.36-11.42 32.03-11.94 31.14-11.94L31.14-11.94 31.14-12.44Q31.91-12.37 32.64-12.37L32.64-12.37Q33.65-12.37 34.52-12.45 35.4-12.54 36.15-12.71L36.15-12.71 36.15-10.54Q36.75-11.77 37.79-12.27 38.82-12.78 40.1-12.78ZM50.69-12.78L50.69-12.78Q51.7-12.78 52.45-12.53 53.21-12.27 53.55-12.03L53.55-12.03Q54.37-11.48 54.56-12.76L54.56-12.76 55.07-12.76Q55.02-12.08 54.99-11.11 54.97-10.13 54.97-8.52L54.97-8.52 54.46-8.52Q54.34-9.41 54.01-10.28 53.67-11.14 53.03-11.7 52.39-12.25 51.38-12.25L51.38-12.25Q50.69-12.25 50.2-11.85 49.72-11.46 49.72-10.71L49.72-10.71Q49.72-9.99 50.16-9.45 50.59-8.9 51.28-8.41 51.96-7.92 52.71-7.36L52.71-7.36Q53.91-6.47 54.74-5.57 55.57-4.67 55.57-3.23L55.57-3.23Q55.57-2.14 54.95-1.34 54.32-0.53 53.3-0.1 52.27 0.34 51.02 0.34L51.02 0.34Q50.3 0.34 49.74 0.19 49.17 0.05 48.76-0.17L48.76-0.17Q48.45-0.31 48.17-0.45 47.89-0.58 47.65-0.67L47.65-0.67Q47.41-0.75 47.23-0.51 47.05-0.26 46.96 0.17L46.96 0.17 46.45 0.17Q46.5-0.6 46.52-1.71 46.55-2.82 46.55-4.65L46.55-4.65 47.05-4.65Q47.2-3.35 47.58-2.35 47.97-1.35 48.63-0.78 49.29-0.22 50.3-0.22L50.3-0.22Q50.93-0.22 51.46-0.61 51.99-1.01 51.99-1.93L51.99-1.93Q51.99-2.98 51.3-3.68 50.61-4.38 49.55-5.2L49.55-5.2Q48.78-5.82 48.1-6.44 47.41-7.05 46.98-7.79 46.55-8.52 46.55-9.46L46.55-9.46Q46.55-10.54 47.12-11.29 47.7-12.03 48.65-12.41 49.6-12.78 50.69-12.78ZM61.93-16.39L61.93-16.39 61.93-12.44 64.77-12.44 64.77-11.96 61.93-11.96 61.93-2.24Q61.93-1.52 62.19-1.22 62.45-0.91 62.98-0.91L62.98-0.91Q63.42-0.91 63.85-1.24 64.28-1.56 64.62-2.36L64.62-2.36 65.03-2.14Q64.65-1.06 63.86-0.36 63.08 0.34 61.73 0.34L61.73 0.34Q60.94 0.34 60.34 0.13 59.74-0.07 59.33-0.48L59.33-0.48Q58.8-1.01 58.63-1.79 58.46-2.58 58.46-3.83L58.46-3.83 58.46-11.96 56.44-11.96 56.44-12.44 58.46-12.44 58.46-15.62Q59.47-15.62 60.32-15.8 61.18-15.98 61.93-16.39ZM68.69 0.17L68.69 0.17Q67.08 0.17 66.35-0.67 65.63-1.52 65.63-2.72L65.63-2.72Q65.63-3.75 66.1-4.4 66.57-5.05 67.32-5.48 68.06-5.9 68.89-6.17 69.72-6.45 70.48-6.73 71.24-7 71.71-7.36 72.18-7.73 72.18-8.28L72.18-8.28 72.18-10.16Q72.18-10.78 71.97-11.28 71.77-11.77 71.35-12.03 70.93-12.3 70.25-12.3L70.25-12.3Q69.77-12.3 69.29-12.17 68.81-12.03 68.5-11.72L68.5-11.72Q69.17-11.48 69.54-10.99 69.92-10.49 69.92-9.87L69.92-9.87Q69.92-9.05 69.35-8.57 68.78-8.09 68.01-8.09L68.01-8.09Q67.15-8.09 66.7-8.63 66.26-9.17 66.26-9.94L66.26-9.94Q66.26-10.64 66.61-11.1 66.96-11.55 67.58-11.96L67.58-11.96Q68.26-12.35 69.21-12.56 70.16-12.78 71.26-12.78L71.26-12.78Q72.37-12.78 73.26-12.55 74.15-12.32 74.75-11.72L74.75-11.72Q75.31-11.17 75.48-10.36 75.64-9.55 75.64-8.33L75.64-8.33 75.64-1.78Q75.64-1.2 75.76-0.96 75.88-0.72 76.17-0.72L76.17-0.72Q76.41-0.72 76.63-0.84 76.85-0.96 77.04-1.13L77.04-1.13 77.28-0.72Q76.77-0.29 76.11-0.06 75.45 0.17 74.63 0.17L74.63 0.17Q73.19 0.17 72.72-0.42 72.25-1.01 72.23-1.78L72.23-1.78Q71.62-0.79 70.75-0.31 69.87 0.17 68.69 0.17ZM70.54-1.37L70.54-1.37Q71-1.37 71.4-1.59 71.79-1.81 72.18-2.36L72.18-2.36 72.18-7.29Q71.89-6.81 71.37-6.49 70.85-6.16 70.31-5.79 69.77-5.42 69.41-4.84 69.05-4.26 69.05-3.3L69.05-3.3Q69.05-2.26 69.48-1.82 69.92-1.37 70.54-1.37ZM86.93-12.78L86.93-12.78Q87.94-12.78 88.58-12.53 89.22-12.27 89.58-11.84L89.58-11.84Q89.96-11.38 90.14-10.66 90.32-9.94 90.32-8.71L90.32-8.71 90.32-2.24Q90.32-1.23 90.67-0.87 91.02-0.51 91.87-0.51L91.87-0.51 91.87 0Q91.41-0.02 90.49-0.06 89.58-0.1 88.69-0.1L88.69-0.1Q87.77-0.1 86.9-0.06 86.02-0.02 85.56 0L85.56 0 85.56-0.51Q86.28-0.51 86.57-0.87 86.86-1.23 86.86-2.24L86.86-2.24 86.86-9.72Q86.86-10.32 86.74-10.77 86.62-11.22 86.31-11.47 85.99-11.72 85.37-11.72L85.37-11.72Q84.36-11.72 83.67-10.93 82.98-10.13 82.98-8.93L82.98-8.93 82.98-2.24Q82.98-1.23 83.29-0.87 83.59-0.51 84.28-0.51L84.28-0.51 84.28 0Q83.85-0.02 83.02-0.06 82.19-0.1 81.3-0.1L81.3-0.1Q80.39-0.1 79.42-0.06 78.46-0.02 77.98 0L77.98 0 77.98-0.51Q78.82-0.51 79.17-0.87 79.52-1.23 79.52-2.24L79.52-2.24 79.52-9.82Q79.52-10.9 79.19-11.42 78.87-11.94 77.98-11.94L77.98-11.94 77.98-12.44Q78.75-12.37 79.47-12.37L79.47-12.37Q80.48-12.37 81.36-12.45 82.24-12.54 82.98-12.71L82.98-12.71 82.98-10.54Q83.59-11.77 84.62-12.27 85.66-12.78 86.93-12.78ZM97.64-16.39L97.64-16.39 97.64-12.44 100.48-12.44 100.48-11.96 97.64-11.96 97.64-2.24Q97.64-1.52 97.91-1.22 98.17-0.91 98.7-0.91L98.7-0.91Q99.13-0.91 99.57-1.24 100-1.56 100.34-2.36L100.34-2.36 100.75-2.14Q100.36-1.06 99.58-0.36 98.8 0.34 97.45 0.34L97.45 0.34Q96.65 0.34 96.05 0.13 95.45-0.07 95.04-0.48L95.04-0.48Q94.51-1.01 94.34-1.79 94.18-2.58 94.18-3.83L94.18-3.83 94.18-11.96 92.15-11.96 92.15-12.44 94.18-12.44 94.18-15.62Q95.19-15.62 96.04-15.8 96.9-15.98 97.64-16.39ZM112.92-17.35L112.92-17.35Q114.34-17.35 115.11-17.05 115.88-16.75 116.44-16.41L116.44-16.41Q116.73-16.25 116.91-16.16 117.09-16.08 117.26-16.08L117.26-16.08Q117.64-16.08 117.79-17.14L117.79-17.14 118.34-17.14Q118.32-16.68 118.28-16.04 118.24-15.4 118.23-14.37 118.22-13.33 118.22-11.65L118.22-11.65 117.67-11.65Q117.57-12.9 117.09-14.08 116.61-15.26 115.73-16.02 114.85-16.77 113.57-16.77L113.57-16.77Q112.42-16.77 111.67-16.13 110.93-15.48 110.93-14.32L110.93-14.32Q110.93-13.36 111.41-12.67 111.89-11.99 112.82-11.34 113.74-10.69 115.07-9.77L115.07-9.77Q116.22-9.03 117.14-8.28 118.05-7.53 118.6-6.59 119.16-5.66 119.16-4.36L119.16-4.36Q119.16-2.77 118.33-1.73 117.5-0.7 116.15-0.18 114.8 0.34 113.19 0.34L113.19 0.34Q111.7 0.34 110.81 0.05 109.92-0.24 109.31-0.55L109.31-0.55Q108.78-0.89 108.5-0.89L108.5-0.89Q108.11-0.89 107.97 0.17L107.97 0.17 107.41 0.17Q107.46-0.41 107.47-1.18 107.48-1.95 107.5-3.19 107.51-4.43 107.51-6.33L107.51-6.33 108.06-6.33Q108.16-4.74 108.6-3.36 109.05-1.97 109.98-1.13 110.9-0.29 112.44-0.29L112.44-0.29Q113.69-0.29 114.56-0.96 115.43-1.64 115.43-2.98L115.43-2.98Q115.43-4.48 114.42-5.45 113.41-6.43 111.82-7.46L111.82-7.46Q110.69-8.21 109.7-8.95 108.71-9.7 108.12-10.66 107.53-11.62 107.53-12.95L107.53-12.95Q107.53-14.46 108.29-15.44 109.05-16.41 110.29-16.88 111.53-17.35 112.92-17.35ZM125.61-16.39L125.61-16.39 125.61-12.44 128.45-12.44 128.45-11.96 125.61-11.96 125.61-2.24Q125.61-1.52 125.87-1.22 126.14-0.91 126.67-0.91L126.67-0.91Q127.1-0.91 127.53-1.24 127.97-1.56 128.3-2.36L128.3-2.36 128.71-2.14Q128.33-1.06 127.55-0.36 126.76 0.34 125.42 0.34L125.42 0.34Q124.62 0.34 124.02 0.13 123.42-0.07 123.01-0.48L123.01-0.48Q122.48-1.01 122.31-1.79 122.14-2.58 122.14-3.83L122.14-3.83 122.14-11.96 120.12-11.96 120.12-12.44 122.14-12.44 122.14-15.62Q123.15-15.62 124.01-15.8 124.86-15.98 125.61-16.39ZM135.31-12.78L135.31-12.78Q137.42-12.78 138.63-11.53 139.83-10.28 139.83-7.44L139.83-7.44 131.91-7.44 131.87-7.89 136.8-7.89Q136.82-9.07 136.65-10.07 136.49-11.07 136.13-11.67 135.76-12.27 135.16-12.27L135.16-12.27Q134.32-12.27 133.73-11.22 133.14-10.16 133.02-7.7L133.02-7.7 133.09-7.56Q133.07-7.27 133.06-6.96 133.04-6.64 133.04-6.31L133.04-6.31Q133.04-4.65 133.51-3.61 133.98-2.58 134.71-2.11 135.43-1.64 136.17-1.64L136.17-1.64Q136.9-1.64 137.75-2 138.6-2.36 139.35-3.56L139.35-3.56 139.78-3.42Q139.49-2.5 138.87-1.64 138.24-0.77 137.28-0.22 136.32 0.34 134.97 0.34L134.97 0.34Q133.33 0.34 132.08-0.36 130.83-1.06 130.12-2.48 129.41-3.9 129.41-6.09L129.41-6.09Q129.41-8.33 130.17-9.82 130.93-11.31 132.26-12.05 133.6-12.78 135.31-12.78ZM144.4 0.17L144.4 0.17Q142.79 0.17 142.07-0.67 141.35-1.52 141.35-2.72L141.35-2.72Q141.35-3.75 141.82-4.4 142.29-5.05 143.03-5.48 143.78-5.9 144.61-6.17 145.44-6.45 146.2-6.73 146.96-7 147.42-7.36 147.89-7.73 147.89-8.28L147.89-8.28 147.89-10.16Q147.89-10.78 147.69-11.28 147.48-11.77 147.06-12.03 146.64-12.3 145.97-12.3L145.97-12.3Q145.49-12.3 145.01-12.17 144.52-12.03 144.21-11.72L144.21-11.72Q144.89-11.48 145.26-10.99 145.63-10.49 145.63-9.87L145.63-9.87Q145.63-9.05 145.07-8.57 144.5-8.09 143.73-8.09L143.73-8.09Q142.86-8.09 142.42-8.63 141.97-9.17 141.97-9.94L141.97-9.94Q141.97-10.64 142.32-11.1 142.67-11.55 143.3-11.96L143.3-11.96Q143.97-12.35 144.92-12.56 145.87-12.78 146.98-12.78L146.98-12.78Q148.09-12.78 148.98-12.55 149.87-12.32 150.47-11.72L150.47-11.72Q151.02-11.17 151.19-10.36 151.36-9.55 151.36-8.33L151.36-8.33 151.36-1.78Q151.36-1.2 151.48-0.96 151.6-0.72 151.89-0.72L151.89-0.72Q152.13-0.72 152.35-0.84 152.56-0.96 152.76-1.13L152.76-1.13 153-0.72Q152.49-0.29 151.83-0.06 151.17 0.17 150.35 0.17L150.35 0.17Q148.9 0.17 148.44-0.42 147.97-1.01 147.94-1.78L147.94-1.78Q147.34-0.79 146.46-0.31 145.58 0.17 144.4 0.17ZM146.26-1.37L146.26-1.37Q146.71-1.37 147.11-1.59 147.51-1.81 147.89-2.36L147.89-2.36 147.89-7.29Q147.61-6.81 147.09-6.49 146.57-6.16 146.03-5.79 145.49-5.42 145.13-4.84 144.77-4.26 144.77-3.3L144.77-3.3Q144.77-2.26 145.2-1.82 145.63-1.37 146.26-1.37ZM165.54-18.84L165.54-18.84 165.54-2.65Q165.54-1.56 165.87-1.05 166.21-0.53 167.08-0.53L167.08-0.53 167.08-0.02Q166.33-0.1 165.58-0.1L165.58-0.1Q164.57-0.1 163.69-0.02 162.82 0.05 162.07 0.24L162.07 0.24 162.07-15.96Q162.07-17.04 161.74-17.56 161.42-18.07 160.53-18.07L160.53-18.07 160.53-18.58Q161.3-18.51 162.02-18.51L162.02-18.51Q163.01-18.51 163.9-18.59 164.79-18.68 165.54-18.84ZM159.4-12.78L159.4-12.78Q160.46-12.78 161.26-12.43 162.07-12.08 162.53-11.26L162.53-11.26 162.24-11Q161.93-11.58 161.41-11.83 160.89-12.08 160.31-12.08L160.31-12.08Q159.09-12.08 158.36-10.65 157.64-9.22 157.67-6.23L157.67-6.23Q157.67-4.19 157.94-2.97 158.22-1.76 158.74-1.23 159.25-0.7 159.93-0.7L159.93-0.7Q160.75-0.7 161.4-1.35 162.05-2 162.09-3.1L162.09-3.1 162.21-2.26Q161.85-0.99 161.05-0.32 160.24 0.34 158.94 0.34L158.94 0.34Q157.52 0.34 156.4-0.36 155.28-1.06 154.66-2.52 154.03-3.97 154.03-6.28L154.03-6.28Q154.03-8.47 154.73-9.9 155.43-11.34 156.64-12.06 157.86-12.78 159.4-12.78ZM179.86-12.44L179.86-12.44 179.86-11.96Q179.4-11.84 178.99-11.4 178.58-10.95 178.19-9.89L178.19-9.89 174.8-0.36 173.91 1.32 168.66-10.59Q168.26-11.53 167.86-11.73 167.46-11.94 167.17-11.94L167.17-11.94 167.17-12.44Q167.97-12.37 168.82-12.33 169.68-12.3 170.47-12.3L170.47-12.3Q171.46-12.3 172.27-12.35 173.09-12.39 173.81-12.44L173.81-12.44 173.81-11.94Q173.33-11.94 172.91-11.88 172.49-11.82 172.33-11.54 172.18-11.26 172.47-10.59L172.47-10.59 175.5-3.27 175.28-3.13 177.06-8.11Q177.74-10.06 177.28-10.96 176.82-11.87 175.67-11.96L175.67-11.96 175.67-12.44Q176.22-12.42 176.87-12.39 177.52-12.37 178-12.37L178-12.37Q178.48-12.37 179.01-12.39 179.54-12.42 179.86-12.44ZM174.22-0.31L174.8-0.36 173.89 2.21Q173.43 3.44 172.83 3.92L172.83 3.92Q172.49 4.21 171.96 4.37 171.43 4.52 170.73 4.52L170.73 4.52Q170.16 4.52 169.54 4.33 168.93 4.14 168.52 3.71 168.11 3.27 168.11 2.6L168.11 2.6Q168.11 1.85 168.64 1.41 169.17 0.96 170.04 0.96L170.04 0.96Q170.83 0.96 171.34 1.35 171.84 1.73 171.84 2.48L171.84 2.48Q171.84 2.96 171.54 3.39 171.24 3.83 170.64 4.04L170.64 4.04Q170.76 4.07 170.93 4.07 171.1 4.07 171.19 4.07L171.19 4.07Q171.91 4.07 172.47 3.61 173.02 3.15 173.38 2.17L173.38 2.17 174.22-0.31Z" transform="translate(-1.0299999713897705, 18.84000015258789)"></path></g> <!----> <!----> <!----> <!----> <!----> <!----> <!----></g></g> <!----></g></g><defs v-gra="od"></defs></svg>